<svg xmlns="http://www.w3.org/2000/svg" viewBox="0 0 512 512" width="100%" height="100%">
  <defs>
    <linearGradient id="bg-grad" x1="0%" y1="0%" x2="100%" y2="100%">
      <stop offset="0%" stop-color="#FF6B00" />
      <stop offset="100%" stop-color="#E05C00" />
    </linearGradient>
  </defs>
  <rect x="0" y="0" width="512" height="512" rx="148" fill="url(#bg-grad)" />
  <g transform="translate(128, 128) scale(10.66666)" stroke="#FFFFFF" stroke-width="2" stroke-linecap="round" stroke-linejoin="round" fill="none">
    <path d="M14.4 14.4 9.6 9.6"/>
    <path d="M18.65 5.35 15.3 2.0a1 1 0 0 0-1.4 0L12 3.9a1 1 0 0 0 0 1.4L15.3 8.6a1 1 0 0 0 1.4 0l1.95-1.95a1 1 0 0 0 0-1.4z"/>
    <path d="M8.7 15.3 5.35 18.65a1 1 0 0 0 0 1.4l1.95 1.95a1 1 0 0 0 1.4 0l3.35-3.35a1 1 0 0 0 0-1.4L8.7 15.3z"/>
    <path d="M2.0 15.3l3.35 3.35"/>
    <path d="M18.65 5.35 22.0 8.7"/>
  </g>
</svg>
